<svg id="Layer_1" data-name="Layer 1" xmlns="http://www.w3.org/2000/svg" xmlns:xlink="http://www.w3.org/1999/xlink" viewBox="0 0 126.01 70.51"><defs><clipPath id="clip-path"><rect x="102.61" y="19.66" width="17.54" height="22.59" style="fill:none"/></clipPath><clipPath id="clip-path-2"><rect x="102.6" y="19.66" width="17.54" height="22.59" style="fill:none;clip-path:url(#clip-path-14)"/></clipPath><linearGradient id="linear-gradient" x1="1.73" y1="-106.44" x2="2.13" y2="-106.44" gradientTransform="translate(-864.92 3487.66) rotate(14.69) scale(33.74)" gradientUnits="userSpaceOnUse"><stop offset="0" stop-color="#fff"/><stop offset="1"/></linearGradient><clipPath id="clip-path-3"><rect x="119.65" y="24.52" width="27.59" height="20.35" style="fill:none"/></clipPath><clipPath id="clip-path-4"><rect x="119.65" y="24.52" width="27.59" height="20.35" style="fill:none;clip-path:url(#clip-path-15)"/></clipPath><linearGradient id="linear-gradient-2" x1="-0.75" y1="-105.62" x2="-0.36" y2="-105.62" gradientTransform="translate(-3419.3 422.8) rotate(83.97) scale(33.84)" xlink:href="#linear-gradient"/><clipPath id="clip-path-5"><rect x="136.67" y="40.58" width="31.4" height="16.78" style="fill:none"/></clipPath><clipPath id="clip-path-6"><rect x="136.67" y="40.58" width="31.4" height="16.79" style="fill:none;clip-path:url(#clip-path-11)"/></clipPath><linearGradient id="linear-gradient-3" x1="3.5" y1="-105.72" x2="3.89" y2="-105.72" gradientTransform="translate(2637.69 672.02) rotate(-78.09) scale(24.22)" xlink:href="#linear-gradient"/><clipPath id="clip-path-7"><rect x="170.07" y="19.48" width="28.27" height="26.11" style="fill:none"/></clipPath><clipPath id="clip-path-8"><rect x="170.07" y="19.48" width="28.27" height="26.11" style="fill:none;clip-path:url(#clip-path-12)"/></clipPath><linearGradient id="linear-gradient-4" x1="1.06" y1="-103.93" x2="1.45" y2="-103.93" gradientTransform="translate(-2268.18 -6632.68) rotate(159.03) scale(68.33)" xlink:href="#linear-gradient"/><clipPath id="clip-path-9"><rect x="175.85" y="34.75" width="34.45" height="25.12" style="fill:none"/></clipPath><clipPath id="clip-path-10"><rect x="175.85" y="34.75" width="34.45" height="25.12" style="fill:none;clip-path:url(#clip-path-13)"/></clipPath><linearGradient id="linear-gradient-5" x1="0.7" y1="-107.36" x2="1.09" y2="-107.36" gradientTransform="translate(3208.68 2862.9) rotate(-47.56) scale(38.43)" xlink:href="#linear-gradient"/><clipPath id="clip-path-11"><rect x="136.67" y="40.58" width="31.4" height="16.78" style="fill:none"/></clipPath><clipPath id="clip-path-12"><rect x="170.07" y="19.48" width="28.27" height="26.11" style="fill:none"/></clipPath><clipPath id="clip-path-13"><rect x="175.85" y="34.75" width="34.45" height="25.12" style="fill:none"/></clipPath><clipPath id="clip-path-14"><rect x="102.61" y="19.66" width="17.54" height="22.59" style="fill:none"/></clipPath><clipPath id="clip-path-15"><rect x="119.65" y="24.52" width="27.59" height="20.35" style="fill:none"/></clipPath><mask id="mask" x="7.39" y="12.87" width="28.62" height="31.19" maskUnits="userSpaceOnUse"><g transform="translate(-89.68 -2.49)"><g id="SVGID"><g style="clip-path:url(#clip-path)"><rect x="101.98" y="17.6" width="18.16" height="24.65"/></g><g style="isolation:isolate"><g style="clip-path:url(#clip-path-2)"><polygon points="103.73 15.36 125.68 21.11 119.02 46.55 97.06 40.8 103.73 15.36" style="fill:url(#linear-gradient)"/></g></g></g></g></mask><clipPath id="clip-path-16" transform="translate(-89.68 -2.49)"><rect x="102.61" y="19.66" width="17.54" height="22.59" style="fill:none"/></clipPath><mask id="mask-2" x="27.85" y="19.08" width="31.84" height="26.18" maskUnits="userSpaceOnUse"><g transform="translate(-89.68 -2.49)"><g id="SVGID-2" data-name="SVGID"><g style="clip-path:url(#clip-path-3)"><rect x="119.33" y="21.57" width="27.91" height="23.3"/></g><g style="isolation:isolate"><g style="clip-path:url(#clip-path-4)"><polygon points="146.93 21.64 149.36 44.64 119.95 47.75 117.53 24.75 146.93 21.64" style="fill:url(#linear-gradient-2)"/></g></g></g></g></mask><clipPath id="clip-path-17" transform="translate(-89.68 -2.49)"><rect x="119.65" y="24.52" width="27.59" height="20.35" style="fill:none"/></clipPath><mask id="mask-3" x="43.61" y="31.75" width="38.18" height="29.47" maskUnits="userSpaceOnUse"><g transform="translate(-89.68 -2.49)"><g id="SVGID-3" data-name="SVGID"><g style="clip-path:url(#clip-path-5)"><rect x="136.67" y="40.58" width="31.4" height="19.92"/></g><g style="isolation:isolate"><g style="clip-path:url(#clip-path-6)"><polygon points="133.28 56.65 138.01 34.23 171.46 41.29 166.73 63.7 133.28 56.65" style="fill:url(#linear-gradient-3)"/></g></g></g></g></mask><clipPath id="clip-path-18" transform="translate(-89.68 -2.49)"><rect x="136.67" y="40.58" width="31.4" height="16.78" style="fill:none"/></clipPath><mask id="mask-4" x="71.67" y="7.55" width="45.72" height="45" maskUnits="userSpaceOnUse"><g transform="translate(-89.68 -2.49)"><g id="SVGID-4" data-name="SVGID"><g style="clip-path:url(#clip-path-7)"><rect x="170.07" y="14.73" width="33.53" height="30.86"/></g><g style="isolation:isolate"><g style="clip-path:url(#clip-path-8)"><polygon points="207.07 42.25 173.69 55.04 161.35 22.82 194.72 10.03 207.07 42.25" style="fill:url(#linear-gradient-4)"/></g></g></g></g></mask><clipPath id="clip-path-19" transform="translate(-89.68 -2.49)"><rect x="170.07" y="19.48" width="28.27" height="26.11" style="fill:none"/></clipPath><mask id="mask-5" x="73.66" y="15.11" width="59.47" height="59.43" maskUnits="userSpaceOnUse"><g transform="translate(-89.68 -2.49)"><g id="SVGID-5" data-name="SVGID"><g style="clip-path:url(#clip-path-9)"><rect x="175.2" y="34.75" width="35.1" height="26.8"/></g><g style="isolation:isolate"><g style="clip-path:url(#clip-path-10)"><polygon points="163.34 48.43 191.53 17.59 222.81 46.19 194.61 77.02 163.34 48.43" style="fill:url(#linear-gradient-5)"/></g></g></g></g></mask><clipPath id="clip-path-20" transform="translate(-89.68 -2.49)"><rect x="175.85" y="34.75" width="34.45" height="25.12" style="fill:none"/></clipPath></defs><title>Untitled-1</title><path d="M120.14,20.27l-.07,11.79A11.65,11.65,0,0,0,113.39,30a10.61,10.61,0,0,0-4.56.92c-4.2,2-6.15,5.6-6.18,10.41l-.06,10c.16,7.22-3.77,10.35-12.91,10.51q.1-12.47.18-21.57c.11-17.13,16.91-25.12,30.28-20" transform="translate(-89.68 -2.49)" style="fill:#16366a"/><g style="mask:url(#mask)"><g style="clip-path:url(#clip-path-16)"><path d="M120.14,20.27l-.07,11.79A11.65,11.65,0,0,0,113.39,30a14.15,14.15,0,0,0-4.56.92c-4.1,2.12-6.15,5.6-6.18,10.41v.94c-.66-18.81,7.22-24.65,17.5-22" transform="translate(-89.68 -2.49)" style="fill:#233372;opacity:0.4000000059604645;isolation:isolate"/></g></g><path d="M147.74,30.14c-1.1-2.42-4-2.86-8.58-1.33l-2,.93c-3.81,1.76-5.88,4.09-5.9,7.06a4.12,4.12,0,0,0,.52,1.64l3.28,7.2c-.11-3.68.94-5.38,7.5-8.11q5.24-2.43,5.63-5.12a4.51,4.51,0,0,0-.45-2.27m1.79,30.05q-12.25,5.66-19.33-.35A20.73,20.73,0,0,1,126.08,54L120.8,42.38q-3.66-8,4.31-16.59A31,31,0,0,1,133,20.51q14.72-6.8,22.5.34a13.83,13.83,0,0,1,2.46,3.62l.5,1.1q3.34,7.32-2.84,13.24a38.71,38.71,0,0,1-9,5.58l-9.81,4.54a.19.19,0,0,0-.11.28q2.55,5.59,10.74,1.81l1.14-.53a76.41,76.41,0,0,0,13-7.5,21.53,21.53,0,0,0,2.82,8.76,112.15,112.15,0,0,1-14.83,8.44" transform="translate(-89.68 -2.49)" style="fill:#16366a"/><g style="mask:url(#mask-2)"><g style="clip-path:url(#clip-path-17)"><path d="M121.93,44.87l-1.14-2.49a11.93,11.93,0,0,1-.74-8.15c7.11-11,23.82-12.66,27.19-4.92q-2-2.5-8.08-.5l-2,.93q-5.72,2.64-5.9,7.06a6.62,6.62,0,0,0,.52,1.64l.84,1.86Z" transform="translate(-89.68 -2.49)" style="fill:#233372;opacity:0.4000000059604645;isolation:isolate"/></g></g><g style="mask:url(#mask-3)"><g style="clip-path:url(#clip-path-18)"><path d="M136.67,49.21q2.55,5.59,10.74,1.81l1.14-.53c8.1-3.9,13.32-7.22,15.6-9.91l3.92,8.61c-15.27,10.47-26.46,11.3-31.4,0" transform="translate(-89.68 -2.49)" style="fill:#233372;opacity:0.4000000059604645;isolation:isolate"/></g></g><path d="M175.87,39.85c0,4.74,1.76,8.24,5.36,10.47a11,11,0,0,0,5.07,1.25h.86q6.33,0,9.46-6.43a15.35,15.35,0,0,0,.91-4.86v-.62q0-7.27-6.09-10.46a14.15,14.15,0,0,0-4.56-.92q-7.73,0-10.46,7.64a22.21,22.21,0,0,0-.55,3.93M210.52,2.51l-.24,38a20.72,20.72,0,0,1-9,17.53q-6,4-14.82,4-13,0-19.65-9A22.31,22.31,0,0,1,163,39.86,21.16,21.16,0,0,1,173.48,21a27.57,27.57,0,0,1,13.13-3.1H187a18.5,18.5,0,0,1,9.84,2.6l0-7.94c.55-8,5.94-10.33,13.6-10.06" transform="translate(-89.68 -2.49)" style="fill:#16366a"/><g style="mask:url(#mask-4)"><g style="clip-path:url(#clip-path-19)"><path d="M170.07,23.55A25.83,25.83,0,0,1,173.48,21c16.16-6.28,30.12,7.72,22.92,24.58l.22-.45a15.35,15.35,0,0,0,.91-4.86v-.62q0-7.27-6.09-10.46a14.1,14.1,0,0,0-4.56-.92q-6.27,0-9.25,5l-3.16-2.07Z" transform="translate(-89.68 -2.49)" style="fill:#233372;opacity:0.4000000059604645;isolation:isolate"/></g></g><g style="mask:url(#mask-5)"><g style="clip-path:url(#clip-path-20)"><path d="M210.29,38.28v2.2a20.72,20.72,0,0,1-9,17.53,21.82,21.82,0,0,1-2.87,1.62c-14.24,1.92-23.2-8-22.51-19.05.14,4.36,1.93,7.62,5.34,9.74a11,11,0,0,0,5.07,1.25h.86q6.33,0,9.46-6.43a15.4,15.4,0,0,0,.91-4.86v-.62a12.65,12.65,0,0,0-.85-4.91Z" transform="translate(-89.68 -2.49)" style="fill:#233372;opacity:0.4000000059604645;isolation:isolate"/></g></g><path d="M209,71.42a1.5,1.5,0,0,1-1.06-.33,1.31,1.31,0,0,1-.31-1V64.6l.8-.15V70a1.51,1.51,0,0,0,0,.34.42.42,0,0,0,.11.21.37.37,0,0,0,.21.12,1.73,1.73,0,0,0,.32.07Zm-4.08-4.81a2.2,2.2,0,0,1,.82.13,1.19,1.19,0,0,1,.53.36,1.36,1.36,0,0,1,.29.56,2.6,2.6,0,0,1,.09.71v2.88l-.29,0-.42.06-.5,0-.54,0a3,3,0,0,1-.7-.08,1.68,1.68,0,0,1-.56-.25,1.27,1.27,0,0,1-.36-.46,1.59,1.59,0,0,1-.13-.68,1.37,1.37,0,0,1,.15-.66,1.24,1.24,0,0,1,.41-.44,2,2,0,0,1,.61-.25,3.38,3.38,0,0,1,.72-.08l.25,0a1.9,1.9,0,0,1,.25,0l.2,0,.12,0v-.23a1.9,1.9,0,0,0,0-.41,1,1,0,0,0-.15-.35.86.86,0,0,0-.31-.25,1.23,1.23,0,0,0-.51-.09,4.65,4.65,0,0,0-.69.05,2.58,2.58,0,0,0-.45.13l-.09-.69a3.49,3.49,0,0,1,.52-.14,4.75,4.75,0,0,1,.78-.06m.07,4.13a4,4,0,0,0,.51,0,1.79,1.79,0,0,0,.36,0V69.3a1,1,0,0,0-.28-.07,3.09,3.09,0,0,0-.47,0l-.38,0a1.34,1.34,0,0,0-.37.11,1,1,0,0,0-.29.23.8.8,0,0,0,.17,1,1.44,1.44,0,0,0,.75.17m-3.91-4h1.7v.69h-1.7v2.13a2.94,2.94,0,0,0,.05.57,1,1,0,0,0,.16.36.53.53,0,0,0,.26.18,1,1,0,0,0,.36,0,1.56,1.56,0,0,0,.58-.08l.31-.12.16.68a2.93,2.93,0,0,1-.43.16,2.4,2.4,0,0,1-.69.09,2.05,2.05,0,0,1-.76-.12,1.22,1.22,0,0,1-.48-.36,1.59,1.59,0,0,1-.25-.59,3.88,3.88,0,0,1-.07-.81V65.44l.8-.15v1.43Zm-2.21-.83a.53.53,0,0,1-.37-.15.51.51,0,0,1-.14-.39.53.53,0,0,1,.14-.4.57.57,0,0,1,.37-.14.5.5,0,0,1,.52.54.51.51,0,0,1-.15.39.5.5,0,0,1-.37.15m.41,5.44h-.8V66.72h.8Zm-2.66-3.88-.32-.07a4,4,0,0,0-.55,0,1.21,1.21,0,0,0-1,.44,1.79,1.79,0,0,0-.35,1.15,2.27,2.27,0,0,0,.1.68,1.42,1.42,0,0,0,.27.47,1.08,1.08,0,0,0,.39.28,1.38,1.38,0,0,0,.45.08,1.87,1.87,0,0,0,.59-.09,1.37,1.37,0,0,0,.42-.21v-2.7Zm0,3.42a1.75,1.75,0,0,1-.4.18,1.87,1.87,0,0,1-.7.11,2.13,2.13,0,0,1-.76-.13,1.64,1.64,0,0,1-.63-.41,2.11,2.11,0,0,1-.42-.7,2.93,2.93,0,0,1-.16-1,2.75,2.75,0,0,1,.15-.93,2,2,0,0,1,.43-.72,1.79,1.79,0,0,1,.69-.48,2.21,2.21,0,0,1,.91-.17,4.73,4.73,0,0,1,1,.08l.7.15V71a2,2,0,0,1-.53,1.54,2.38,2.38,0,0,1-1.62.48,4.38,4.38,0,0,1-1.45-.24L194,72a3.24,3.24,0,0,0,.59.17,3,3,0,0,0,.73.08,1.54,1.54,0,0,0,1-.29,1.23,1.23,0,0,0,.31-.93v-.2Zm-4.27-5a.5.5,0,0,1-.37-.15.51.51,0,0,1-.15-.39.5.5,0,0,1,.52-.54.55.55,0,0,1,.37.14.54.54,0,0,1,.15.4.51.51,0,0,1-.52.54m.4,5.44H192V66.72h.8ZM190.1,64.6l.8-.15V71.2c-.19,0-.42.11-.71.16a5.83,5.83,0,0,1-1,.08,2.45,2.45,0,0,1-.93-.17,1.86,1.86,0,0,1-.71-.48,2,2,0,0,1-.45-.76,2.84,2.84,0,0,1-.16-1,3.37,3.37,0,0,1,.13-1,2.28,2.28,0,0,1,.39-.76,1.85,1.85,0,0,1,.64-.5,2.09,2.09,0,0,1,.86-.17,2.07,2.07,0,0,1,.68.1,1.92,1.92,0,0,1,.45.21Zm0,3.1a1.53,1.53,0,0,0-.43-.24,1.46,1.46,0,0,0-.6-.12,1.32,1.32,0,0,0-.59.13,1.07,1.07,0,0,0-.4.36,1.42,1.42,0,0,0-.23.53,3.53,3.53,0,0,0-.07.67,1.79,1.79,0,0,0,.39,1.24,1.34,1.34,0,0,0,1,.44,4.22,4.22,0,0,0,.55,0,1.81,1.81,0,0,0,.34-.07V67.7Zm-7.63-1.09a2.17,2.17,0,0,1,.82.13,1.29,1.29,0,0,1,.54.36,1.35,1.35,0,0,1,.28.56,2.6,2.6,0,0,1,.09.71v2.88l-.29,0-.42.06-.5,0-.54,0a3.06,3.06,0,0,1-.7-.08,1.54,1.54,0,0,1-.55-.25,1.2,1.2,0,0,1-.37-.46,1.75,1.75,0,0,1-.13-.68,1.37,1.37,0,0,1,.16-.66,1.21,1.21,0,0,1,.4-.44,2,2,0,0,1,.61-.25,3.38,3.38,0,0,1,.72-.08l.26,0a2,2,0,0,1,.24,0l.2,0,.13,0v-.23a1.92,1.92,0,0,0,0-.41.85.85,0,0,0-.15-.35.86.86,0,0,0-.31-.25,1.21,1.21,0,0,0-.5-.09,4.68,4.68,0,0,0-.7.05,2.19,2.19,0,0,0-.44.13l-.1-.69a3.49,3.49,0,0,1,.52-.14,4.75,4.75,0,0,1,.78-.06m.07,4.13a4,4,0,0,0,.51,0,1.9,1.9,0,0,0,.37,0V69.3a1.13,1.13,0,0,0-.28-.07,3.33,3.33,0,0,0-.48,0l-.38,0a1.34,1.34,0,0,0-.37.11.91.91,0,0,0-.28.23.6.6,0,0,0-.11.39.68.68,0,0,0,.27.62,1.49,1.49,0,0,0,.75.17m-3-4.85a.5.5,0,0,1-.37-.15.51.51,0,0,1-.15-.39.5.5,0,0,1,.52-.54.52.52,0,0,1,.36.14.54.54,0,0,1,.15.4.51.51,0,0,1-.15.39.49.49,0,0,1-.36.15m.4,5.44h-.8V66.72h.8Zm-2.53.11a2.38,2.38,0,0,1-1-.18,2,2,0,0,1-.69-.49,2.25,2.25,0,0,1-.42-.76,3.3,3.3,0,0,1-.13-1,2.8,2.8,0,0,1,.15-1,2.49,2.49,0,0,1,.42-.77,2,2,0,0,1,.68-.5,2.18,2.18,0,0,1,.89-.18,4.07,4.07,0,0,1,.61,0,3,3,0,0,1,.58.17l-.18.7a1.73,1.73,0,0,0-.42-.14,2.1,2.1,0,0,0-.51,0,1.25,1.25,0,0,0-1,.43,1.94,1.94,0,0,0-.36,1.27,3,3,0,0,0,.08.68,1.64,1.64,0,0,0,.26.53,1.13,1.13,0,0,0,.46.34,1.67,1.67,0,0,0,.67.12,2.58,2.58,0,0,0,.58-.06,2.35,2.35,0,0,0,.4-.13l.12.69a.76.76,0,0,1-.2.08l-.29.07c-.11,0-.23,0-.35.06l-.36,0m-6.58-4.58c.18,0,.43-.1.73-.16a6.68,6.68,0,0,1,1-.07,2.35,2.35,0,0,1,.9.15,1.36,1.36,0,0,1,.56.44,1.67,1.67,0,0,1,.3.66,3.91,3.91,0,0,1,.09.86v2.59h-.81V68.92a5,5,0,0,0-.05-.73,1.18,1.18,0,0,0-.19-.48.67.67,0,0,0-.35-.27,1.36,1.36,0,0,0-.53-.09h-.27l-.26,0-.23,0-.14,0v3.89h-.8V66.86Zm-2.72-2.34,1.18,1.26-.34.39-.84-.78-.84.78-.33-.39Zm1.05,4.07a1.36,1.36,0,0,0-.27-.92.91.91,0,0,0-.77-.36,1.07,1.07,0,0,0-.49.11,1.12,1.12,0,0,0-.36.29,1.11,1.11,0,0,0-.22.4,2.12,2.12,0,0,0-.11.47h2.22Zm-3.08.45a2.89,2.89,0,0,1,.18-1.07,2.1,2.1,0,0,1,.45-.76,1.85,1.85,0,0,1,.66-.45,2,2,0,0,1,.76-.15,1.7,1.7,0,0,1,1.39.58A2.73,2.73,0,0,1,170,69v.13a.81.81,0,0,1,0,.16H167a1.72,1.72,0,0,0,.41,1.09,1.43,1.43,0,0,0,1.1.37,2.88,2.88,0,0,0,.71-.07,2.19,2.19,0,0,0,.44-.15l.11.69a2.68,2.68,0,0,1-.51.17,3.61,3.61,0,0,1-.84.09,2.6,2.6,0,0,1-1-.18,1.94,1.94,0,0,1-.71-.5,2.05,2.05,0,0,1-.4-.76,3.32,3.32,0,0,1-.14-1m-1.6-1.59-.33-.07a3.75,3.75,0,0,0-.54,0,1.2,1.2,0,0,0-1,.44,1.79,1.79,0,0,0-.35,1.15,2,2,0,0,0,.1.68,1.14,1.14,0,0,0,.27.47,1.08,1.08,0,0,0,.39.28,1.33,1.33,0,0,0,.45.08,1.87,1.87,0,0,0,.59-.09,1.49,1.49,0,0,0,.42-.21v-2.7Zm0,3.42a2,2,0,0,1-.4.18,1.87,1.87,0,0,1-.7.11,2.13,2.13,0,0,1-.76-.13,1.64,1.64,0,0,1-.63-.41,2,2,0,0,1-.42-.7,2.71,2.71,0,0,1-.16-1,2.75,2.75,0,0,1,.15-.93,2,2,0,0,1,.43-.72,1.75,1.75,0,0,1,.68-.48,2.25,2.25,0,0,1,.92-.17,4.79,4.79,0,0,1,1,.08l.7.15V71a2,2,0,0,1-.53,1.54,2.39,2.39,0,0,1-1.63.48,4.11,4.11,0,0,1-.8-.07,4.35,4.35,0,0,1-.65-.17l.15-.72a3.24,3.24,0,0,0,.59.17,2.92,2.92,0,0,0,.73.08,1.51,1.51,0,0,0,1-.29,1.23,1.23,0,0,0,.32-.93v-.2ZM159,66.61a2.15,2.15,0,0,1,.81.13,1.29,1.29,0,0,1,.54.36,1.49,1.49,0,0,1,.29.56,3.08,3.08,0,0,1,.08.71v2.88l-.29,0-.42.06-.5,0-.54,0a3.06,3.06,0,0,1-.7-.08,1.54,1.54,0,0,1-.55-.25,1.2,1.2,0,0,1-.37-.46,1.75,1.75,0,0,1-.13-.68,1.37,1.37,0,0,1,.16-.66,1.15,1.15,0,0,1,.41-.44,1.81,1.81,0,0,1,.6-.25,3.4,3.4,0,0,1,.73-.08l.25,0a1.75,1.75,0,0,1,.24,0l.21,0,.12,0v-.23a2.85,2.85,0,0,0,0-.41,1,1,0,0,0-.16-.35.86.86,0,0,0-.31-.25,1.18,1.18,0,0,0-.5-.09,4.68,4.68,0,0,0-.7.05,2.7,2.7,0,0,0-.44.13l-.1-.69a3.88,3.88,0,0,1,.52-.14,4.79,4.79,0,0,1,.79-.06m.06,4.13a4,4,0,0,0,.51,0,1.82,1.82,0,0,0,.37,0V69.3a1,1,0,0,0-.28-.07,3.23,3.23,0,0,0-.48,0l-.38,0a1.45,1.45,0,0,0-.37.11.91.91,0,0,0-.28.23A.6.6,0,0,0,158,70a.68.68,0,0,0,.27.62,1.49,1.49,0,0,0,.75.17" transform="translate(-89.68 -2.49)" style="fill:#16366a"/><path d="M211,54.24h.43a2.12,2.12,0,0,0,.85-.15.59.59,0,0,0,.34-.6.63.63,0,0,0-.33-.6,1.65,1.65,0,0,0-.77-.16h-.26l-.26,0v1.49Zm1.9,2.42a9,9,0,0,0-.58-1c-.22-.31-.41-.56-.56-.75H211v1.75h-.81V52.14a6.32,6.32,0,0,1,.65-.1c.23,0,.43,0,.62,0a2.45,2.45,0,0,1,1.48.38,1.43,1.43,0,0,1,.29,1.88,1.4,1.4,0,0,1-.62.49l.26.35c.09.14.2.29.3.46s.21.35.32.54.2.37.28.55h-.87Zm1.92-2.32a4.15,4.15,0,0,0-.22-1.4,3.25,3.25,0,0,0-.63-1.09,2.9,2.9,0,0,0-1-.7,3.14,3.14,0,0,0-1.23-.24,3.07,3.07,0,0,0-1.23.24,2.9,2.9,0,0,0-1,.7,3.25,3.25,0,0,0-.63,1.09,4.38,4.38,0,0,0,0,2.8,3.25,3.25,0,0,0,.63,1.09,2.77,2.77,0,0,0,1,.7,3.07,3.07,0,0,0,1.23.24,3.14,3.14,0,0,0,1.23-.24,2.77,2.77,0,0,0,1-.7,3.25,3.25,0,0,0,.63-1.09,4.15,4.15,0,0,0,.22-1.4m.83,0a4.51,4.51,0,0,1-.32,1.77,3.83,3.83,0,0,1-.84,1.33,3.7,3.7,0,0,1-1.24.83,3.88,3.88,0,0,1-1.47.28,3.81,3.81,0,0,1-1.47-.28,3.7,3.7,0,0,1-1.24-.83,4,4,0,0,1-.85-1.33,5.06,5.06,0,0,1,0-3.54,4,4,0,0,1,.85-1.33,3.68,3.68,0,0,1,1.24-.82,3.64,3.64,0,0,1,1.47-.29,3.86,3.86,0,0,1,2.71,1.11,3.83,3.83,0,0,1,.84,1.33,4.51,4.51,0,0,1,.32,1.77" transform="translate(-89.68 -2.49)" style="fill:#16366a"/><path d="M174.37,9.91H170a1.52,1.52,0,0,0-1.5,1.54v7.7a1.53,1.53,0,0,1-1.5,1.54h-7.12a1.53,1.53,0,0,1-1.5-1.54V11.84a1.53,1.53,0,0,1,1.5-1.54h7.39a1.53,1.53,0,0,0,1.5-1.54V4.14a1.52,1.52,0,0,1,1.5-1.53h4.12a1.52,1.52,0,0,1,1.49,1.53V8.38a1.52,1.52,0,0,1-1.49,1.53" transform="translate(-89.68 -2.49)" style="fill:#16366a;fill-rule:evenodd"/><path d="M173.63,15.7h-1.79a.66.66,0,0,1-.65-.66V13.2a.67.67,0,0,1,.65-.67h1.79a.66.66,0,0,1,.65.67V15a.66.66,0,0,1-.65.66" transform="translate(-89.68 -2.49)" style="fill:#16366a;fill-rule:evenodd"/><path d="M166.26,9h-3a1.13,1.13,0,0,1-1.11-1.14V4.68a1.12,1.12,0,0,1,1.11-1.13h3a1.12,1.12,0,0,1,1.1,1.13V7.81A1.13,1.13,0,0,1,166.26,9" transform="translate(-89.68 -2.49)" style="fill:#16366a;fill-rule:evenodd"/></svg>